<svg width="16" height="16" viewBox="0 0 16 16" fill="none" xmlns="http://www.w3.org/2000/svg">
<path fill-rule="evenodd" clip-rule="evenodd" d="M6.45661 1.04655C7.11587 -0.186902 8.88411 -0.186905 9.54337 1.04655L15.625 12.4251C16.2481 13.5908 15.4034 15 14.0816 15H1.91835C0.596547 15 -0.2481 13.5908 0.374966 12.4251L6.45661 1.04655ZM7.99999 5.00002C8.4142 5.00002 8.74999 5.3358 8.74999 5.75002V8.25002C8.74999 8.66423 8.4142 9.00002 7.99999 9.00002C7.58578 9.00002 7.24999 8.66423 7.24999 8.25002V5.75002C7.24999 5.3358 7.58578 5.00002 7.99999 5.00002ZM8.99999 11C8.99999 11.5523 8.55227 12 7.99999 12C7.44771 12 6.99999 11.5523 6.99999 11C6.99999 10.4477 7.44771 10 7.99999 10C8.55227 10 8.99999 10.4477 8.99999 11Z" fill="#8B949E"/>
</svg>
