<svg width="16" height="16" viewBox="0 0 16 16" fill="none" xmlns="http://www.w3.org/2000/svg">
<path fill-rule="evenodd" clip-rule="evenodd" d="M8.22047 1.75361C8.12629 1.57741 7.87368 1.57741 7.7795 1.75362L1.69786 13.1321C1.60885 13.2987 1.72952 13.5 1.91834 13.5H14.0816C14.2705 13.5 14.3911 13.2987 14.3021 13.1321L8.22047 1.75361ZM6.45661 1.04655C7.11587 -0.186903 8.88411 -0.186904 9.54337 1.04655L15.625 12.4251C16.2481 13.5908 15.4034 15 14.0816 15H1.91834C0.596546 15 -0.248101 13.5908 0.374966 12.4251L6.45661 1.04655ZM8.99999 11C8.99999 11.5523 8.55228 12 7.99999 12C7.44771 12 6.99999 11.5523 6.99999 11C6.99999 10.4477 7.44771 10 7.99999 10C8.55228 10 8.99999 10.4477 8.99999 11ZM8.74999 5.75003C8.74999 5.33582 8.4142 5.00003 7.99999 5.00003C7.58578 5.00003 7.24999 5.33582 7.24999 5.75003V8.25003C7.24999 8.66424 7.58578 9.00003 7.99999 9.00003C8.4142 9.00003 8.74999 8.66424 8.74999 8.25003V5.75003Z" fill="#D29922"/>
</svg>
