<svg width="24" height="24" viewBox="0 0 24 24" fill="none" xmlns="http://www.w3.org/2000/svg">
<path fill-rule="evenodd" clip-rule="evenodd" d="M24 12C24 18.6274 18.6274 24 12 24C5.37258 24 0 18.6274 0 12C0 5.37259 5.37258 0 12 0C18.6274 0 24 5.37259 24 12ZM22.25 12C22.25 17.6609 17.6609 22.25 12 22.25C6.33908 22.25 1.75 17.6609 1.75 12C1.75 6.33909 6.33908 1.75 12 1.75C17.6609 1.75 22.25 6.33909 22.25 12Z" fill="white"/>
<path d="M18.2331 11.584C18.53 11.7819 18.53 12.2181 18.2331 12.416L9.34882 18.3389C9.01654 18.5604 8.57146 18.3222 8.57146 17.9229L8.57146 6.07711C8.57146 5.67776 9.01654 5.43957 9.34881 5.66109L18.2331 11.584Z" fill="white"/>
</svg>
