<svg width="16" height="16" viewBox="0 0 16 16" fill="none" xmlns="http://www.w3.org/2000/svg">
<path fill-rule="evenodd" clip-rule="evenodd" d="M6.45664 1.04655C7.1159 -0.186902 8.88414 -0.186905 9.5434 1.04655L15.625 12.4251C16.2481 13.5908 15.4035 15 14.0817 15H1.91838C0.596577 15 -0.24807 13.5908 0.374997 12.4251L6.45664 1.04655ZM8.00002 5.00002C8.41423 5.00002 8.75002 5.3358 8.75002 5.75002V8.25002C8.75002 8.66423 8.41423 9.00002 8.00002 9.00002C7.58581 9.00002 7.25002 8.66423 7.25002 8.25002V5.75002C7.25002 5.3358 7.58581 5.00002 8.00002 5.00002ZM9.00002 11C9.00002 11.5523 8.55231 12 8.00002 12C7.44774 12 7.00002 11.5523 7.00002 11C7.00002 10.4477 7.44774 10 8.00002 10C8.55231 10 9.00002 10.4477 9.00002 11Z" fill="#57606A"/>
</svg>
