<svg width="16" height="16" viewBox="0 0 16 16" fill="none" xmlns="http://www.w3.org/2000/svg">
<path fill-rule="evenodd" clip-rule="evenodd" d="M8.2205 1.75361C8.12632 1.57741 7.87371 1.57741 7.77953 1.75362L1.69789 13.1321C1.60888 13.2987 1.72955 13.5 1.91837 13.5H14.0816C14.2705 13.5 14.3911 13.2987 14.3021 13.1321L8.2205 1.75361ZM6.45664 1.04655C7.1159 -0.186903 8.88414 -0.186904 9.5434 1.04655L15.625 12.4251C16.2481 13.5908 15.4034 15 14.0816 15H1.91837C0.596577 15 -0.24807 13.5908 0.374997 12.4251L6.45664 1.04655ZM9.00002 11C9.00002 11.5523 8.55231 12 8.00002 12C7.44774 12 7.00002 11.5523 7.00002 11C7.00002 10.4477 7.44774 10 8.00002 10C8.55231 10 9.00002 10.4477 9.00002 11ZM8.75002 5.75003C8.75002 5.33582 8.41423 5.00003 8.00002 5.00003C7.58581 5.00003 7.25002 5.33582 7.25002 5.75003V8.25003C7.25002 8.66424 7.58581 9.00003 8.00002 9.00003C8.41423 9.00003 8.75002 8.66424 8.75002 8.25003V5.75003Z" fill="#9A6700"/>
</svg>
